<svg t="1631344543597" class="icon" viewBox="0 0 1024 1024" version="1.1" xmlns="http://www.w3.org/2000/svg" p-id="3814" width="32" height="32"><path d="M512 128c212.064 0 384 171.936 384 384s-171.936 384-384 384c-111.328 0-211.584-47.36-281.728-123.04a27.68 27.68 0 0 1-4.416-4.544l-0.96-1.376A382.56 382.56 0 0 1 128 512C128 299.936 299.936 128 512 128z m0.768 456.8a249.504 249.504 0 0 0-230.976 155.168A322.912 322.912 0 0 0 512 836c90.56 0 172.48-37.152 231.264-97.088a249.44 249.44 0 0 0-230.496-154.112zM512 188C333.056 188 188 333.056 188 512c0 66.56 20.064 128.448 54.496 179.904a305.76 305.76 0 0 1 171.264-146.656 144 144 0 1 1 196.896-0.352 305.76 305.76 0 0 1 171.68 145.696A322.272 322.272 0 0 0 836 512c0-178.944-145.056-324-324-324zM512 352a88 88 0 1 0 0 176 88 88 0 0 0 0-176z" p-id="3815"></path></svg>